<svg xmlns="http://www.w3.org/2000/svg" viewBox="0 0 206.31 206.31"><defs><style>.cls-1{fill:#2c2d2d;}.cls-2,.cls-3{fill:none;stroke:#ffc62b;stroke-miterlimit:10;}.cls-2{stroke-width:6px;}.cls-3{stroke-width:3px;}.cls-4{fill:#ffc62b;}</style></defs><title>Ativo 7</title><g id="Camada_2" data-name="Camada 2"><g id="Camada_1-2" data-name="Camada 1"><circle class="cls-1" cx="103.15" cy="103.15" r="103.15"/><path class="cls-2" d="M158.92,166.1a83.08,83.08,0,0,1-52.38,18.49c-46.08,0-83.43-35.35-83.43-81.43s37.35-81.43,83.43-81.43A83.06,83.06,0,0,1,147.2,32.28"/><polyline class="cls-3" points="125.56 163.63 124.99 162.68 118.1 152.53"/><path class="cls-4" d="M97.81,121.38S98.38,161.7,119,153C119,153,135.82,136.29,97.81,121.38Z"/><polyline class="cls-3" points="125.45 163.6 126.33 162.93 136.43 156.08"/><path class="cls-4" d="M170.75,142.79s-25.29,32.27-35.85,12.87C134.9,155.65,130.79,133.71,170.75,142.79Z"/><path class="cls-4" d="M147.73,106S119,112.7,130.8,140.36C130.8,140.36,155.39,135.94,147.73,106Z"/><path class="cls-3" d="M133.46,135.33s-12.37,22.07-5.7,45.74"/></g></g></svg>