<svg xmlns="http://www.w3.org/2000/svg" height="448" width="448"><rect id="backgroundrect" width="100%" height="100%" x="0" y="0" fill="none" stroke="none"/><g class="currentLayer" style=""><title>Layer 1</title><path d="m96 40c0 4.417969 3.582031 8 8 8s8-3.582031 8-8v-32c0-4.417969-3.582031-8-8-8s-8 3.582031-8 8zm0 0" id="svg_1" class="" fill="#ffffff" fill-opacity="1"/><path d="m256 40c0 4.417969 3.582031 8 8 8s8-3.582031 8-8v-32c0-4.417969-3.582031-8-8-8s-8 3.582031-8 8zm0 0" id="svg_2" class="" fill="#ffffff" fill-opacity="1"/><path d="m48 256h32v32h-32zm0 0" id="svg_3" class="" fill="#ffffff" fill-opacity="1"/><path d="m336 312c0 4.417969-3.582031 8-8 8s-8-3.582031-8-8 3.582031-8 8-8 8 3.582031 8 8zm0 0" id="svg_4" class="" fill="#ffffff" fill-opacity="1"/><path d="m48 160h32v32h-32zm0 0" id="svg_5" class="" fill="#ffffff" fill-opacity="1"/><path d="m0 80h368v-24c0-13.253906-10.746094-24-24-24h-56v8c0 13.253906-10.746094 24-24 24s-24-10.746094-24-24v-8h-112v8c0 13.253906-10.746094 24-24 24s-24-10.746094-24-24v-8h-56c-13.253906 0-24 10.746094-24 24zm0 0" id="svg_6" class="" stroke="#ffffff" stroke-opacity="1" fill="#ffffff" fill-opacity="1"/><path d="m328 192c-66.273438 0-120 53.726562-120 120s53.726562 120 120 120 120-53.726562 120-120c-.078125-66.242188-53.757812-119.921875-120-120zm-88 128h-16v-16h16zm80-112h16v16h-16zm16 208h-16v-16h16zm-8-80c-10.136719-.050781-19.15625-6.449219-22.558594-16h-33.441406v-16h33.441406c2.453125-6.773438 7.785156-12.105469 14.558594-14.558594v-49.441406h16v49.441406c10.917969 3.960938 17.433594 15.175782 15.46875 26.625-1.96875 11.445313-11.851562 19.84375-23.46875 19.933594zm88-16v-16h16v16zm0 0" id="svg_7" class="" fill="#ffffff" fill-opacity="1"/><path d="m128 160h32v32h-32zm0 0" id="svg_8" class="" fill="#ffffff" fill-opacity="1"/><path d="m128 256h32v32h-32zm0 0" id="svg_9" class="" fill="#ffffff" fill-opacity="1"/><path d="m0 96v232c.0390625 13.238281 10.761719 23.960938 24 24h174.160156c-15.027344-48.132812-2.105468-100.632812 33.550782-136.289062s88.15625-48.578126 136.289062-33.550782v-86.160156zm96 192c-.027344 8.824219-7.175781 15.972656-16 16h-32c-8.824219-.027344-15.972656-7.175781-16-16v-32c.027344-8.824219 7.175781-15.972656 16-16h32c8.824219.027344 15.972656 7.175781 16 16zm0-96c-.027344 8.824219-7.175781 15.972656-16 16h-32c-8.824219-.027344-15.972656-7.175781-16-16v-32c.027344-8.824219 7.175781-15.972656 16-16h32c8.824219.027344 15.972656 7.175781 16 16zm80 96c-.027344 8.824219-7.175781 15.972656-16 16h-32c-8.824219-.027344-15.972656-7.175781-16-16v-32c.027344-8.824219 7.175781-15.972656 16-16h32c8.824219.027344 15.972656 7.175781 16 16zm0-96c-.027344 8.824219-7.175781 15.972656-16 16h-32c-8.824219-.027344-15.972656-7.175781-16-16v-32c.027344-8.824219 7.175781-15.972656 16-16h32c8.824219.027344 15.972656 7.175781 16 16zm80-8h-16v-24h-32v32h16v16h-16c-8.824219-.027344-15.972656-7.175781-16-16v-32c.027344-8.824219 7.175781-15.972656 16-16h32c8.824219.027344 15.972656 7.175781 16 16zm80-16h-16v-8h-32v8h-16v-8c.027344-8.824219 7.175781-15.972656 16-16h32c8.824219.027344 15.972656 7.175781 16 16zm0 0" id="svg_10" class="" fill="#ffffff" fill-opacity="1"/></g></svg>