<svg id="Capa_1" enable-background="new 0 0 512 512" height="512" viewBox="0 0 512 512" width="512" xmlns="http://www.w3.org/2000/svg"><path d="m196 437h-45v30c0 24.814 20.186 45 45 45s45-20.186 45-45v-30z" fill="#ffe375"/><path d="m241 467v-30h-45v75c24.814 0 45-20.186 45-45z" fill="#ffb725"/><path d="m196 60c-24.814 0-45 20.186-45 45s20.186 45 45 45 45-20.186 45-45-20.186-45-45-45zm0 60c-8.276 0-15-6.724-15-15s6.724-15 15-15 15 6.724 15 15-6.724 15-15 15z" fill="#ffb725"/><path d="m241 105c0-24.814-20.186-45-45-45v30c8.276 0 15 6.724 15 15s-6.724 15-15 15v30c24.814 0 45-20.186 45-45z" fill="#ff9100"/><path d="m332 377v-122c0-74.443-61.557-135-136-135s-136 60.557-136 135v122c0 24.814-20.186 45-45 45l37.5 15h143.5 140.374l40.626-15c-24.814 0-45-20.186-45-45z" fill="#ffe375"/><path d="m377 422c-24.814 0-45-20.186-45-45v-122c0-74.443-61.557-135-136-135v317h140.374z" fill="#ffb725"/><path d="m377 422h-181-181c-8.284 0-15 6.714-15 15 0 8.284 6.716 15 15 15h181 181c8.284 0 15-6.716 15-15 0-8.286-6.716-15-15-15z" fill="#ffb725"/><path d="m392 437c0-8.286-6.716-15-15-15h-181v30h181c8.284 0 15-6.716 15-15z" fill="#ff9100"/><circle cx="392" cy="120" fill="#ff7c48" r="120"/><path d="m512 120c0-66.167-53.833-120-120-120v240c66.167 0 120-53.833 120-120z" fill="#ff415b"/><path d="m392 52.5c-8.291 0-15 6.709-15 15v60c0 8.291 6.709 15 15 15s15-6.709 15-15v-60c0-8.291-6.709-15-15-15z" fill="#fff5f5"/><circle cx="392" cy="172.5" fill="#fff5f5" r="15"/><g fill="#efe2dd"><path d="m407 127.5v-60c0-8.291-6.709-15-15-15v90c8.291 0 15-6.709 15-15z"/><path d="m407 172.5c0-8.286-6.716-15-15-15v30c8.284 0 15-6.716 15-15z"/></g></svg>