<svg height="512pt" viewBox="0 -106 512 512" width="512pt" xmlns="http://www.w3.org/2000/svg"><path d="m362.667969 299.265625h-48c-8.832031 0-16-7.167969-16-16s7.167969-16 16-16h48c64.703125 0 117.332031-52.78125 117.332031-117.632813 0-64.855468-52.628906-117.632812-117.332031-117.632812h-48c-8.832031 0-16-7.167969-16-16s7.167969-16 16-16h48c82.34375 0 149.332031 67.113281 149.332031 149.632812 0 82.515626-66.988281 149.632813-149.332031 149.632813zm0 0"/><path d="m197.332031 299.265625h-48c-82.34375 0-149.332031-67.117187-149.332031-149.632813 0-82.519531 66.988281-149.632812 149.332031-149.632812h48c8.832031 0 16 7.167969 16 16s-7.167969 16-16 16h-48c-64.703125 0-117.332031 52.777344-117.332031 117.632812 0 64.851563 52.628906 117.632813 117.332031 117.632813h48c8.832031 0 16 7.167969 16 16s-7.167969 16-16 16zm0 0"/><path d="m325.332031 165.632812h-138.664062c-8.832031 0-16-7.167968-16-16 0-8.832031 7.167969-16 16-16h138.664062c8.832031 0 16 7.167969 16 16 0 8.832032-7.167969 16-16 16zm0 0"/></svg>